PathFileType	4	(X/Y/Z)	Walk2.trc
DataRate	CameraRate	NumFrames	NumMarkers	Units	OrigDataRate	OrigDataStartFrame	OrigNumFrames
200.000000	200.000000	7	56	mm	200.000000	309	568
Frame#	Times		RASI		RACR1		RUA1		RFA1		RTH2		C7		LFA1		RTH3		RElbow		LElbowM		RCAR		RTH4		RLFC		RTB3		RMT1		RTB1		RWRU		RMT5		LACR1		RTH1		RTB4		RTB2		LTH3		LElbow		RMMAL		LWRU		RWRR		LPSI		CLAV		LTB1		T10		LBHD		RPSI		LTB4		LTB3		LLFC		LTH2		LTH4		LTB2		RBHD		LWRR		LTH1		LFHD		LMT1		RBack		LMMAL		LCAL		LLMAL		RLMAL		RToe		LMT5		RElbowM		LToe		LUA1		LCAR		RCAL
			X1	Y1	Z1	X2	Y2	Z2	X3	Y3	Z3	X4	Y4	Z4	X5	Y5	Z5	X6	Y6	Z6	X7	Y7	Z7	X8	Y8	Z8	X9	Y9	Z9	X10	Y10	Z10	X11	Y11	Z11	X12	Y12	Z12	X13	Y13	Z13	X14	Y14	Z14	X15	Y15	Z15	X16	Y16	Z16	X17	Y17	Z17	X18	Y18	Z18	X19	Y19	Z19	X20	Y20	Z20	X21	Y21	Z21	X22	Y22	Z22	X23	Y23	Z23	X24	Y24	Z24	X25	Y25	Z25	X26	Y26	Z26	X27	Y27	Z27	X28	Y28	Z28	X29	Y29	Z29	X30	Y30	Z30	X31	Y31	Z31	X32	Y32	Z32	X33	Y33	Z33	X34	Y34	Z34	X35	Y35	Z35	X36	Y36	Z36	X37	Y37	Z37	X38	Y38	Z38	X39	Y39	Z39	X40	Y40	Z40	X41	Y41	Z41	X42	Y42	Z42	X43	Y43	Z43	X44	Y44	Z44	X45	Y45	Z45	X46	Y46	Z46	X47	Y47	Z47	X48	Y48	Z48	X49	Y49	Z49	X50	Y50	Z50	X51	Y51	Z51	X52	Y52	Z52	X53	Y53	Z53	X54	Y54	Z54	X55	Y55	Z55	X56	Y56	Z56

309	1.545	-233.63	947.96	414.1	-261.09	1379	446.01	-312.04	1190.3	521.77	-341.87	924.41	570.17	-169.93	673.79	419.68	-331.74	1440.2	306.64	-266.92	1003.3	-26.718	-210.48	560.91	428.47	-370.63	1069.3	548.97	-400.08	1120.5	80.346	-324.14	737.49	570.29	-233.55	649.67	450.22	-188.8	461.26	410.41	-180.16	182.94	317.59	-92.897	39.304	273.43	-159.87	371.98	324.23	-363.87	794.17	565.45	-119.6	33.247	362.04	-297.68	1439.5	127.17	-258.35	740.91	464.33	-167.71	279.36	322.96	-174.97	274.48	394.69	-253.22	549.39	98.238	-376.23	1122.8	2.8612	-220.52	97.425	271.63	-261.17	885.27	-22.857	-295.36	788.97	527.48	-425.76	958.34	220.29	-200.7	1356.6	280.61	-285.12	340.75	171.78	-431.42	1132.9	275.01	-301.9	1582.9	249.42	-421.4	964.98	325.81	-368.05	298.27	178.47	-449.36	253.54	183.98	-257.77	440.72	111.94	-198.14	650.33	118.86	-269.15	637.52	89.334	-387.39	324.62	114.52	-295.9	1568.5	386.5	-194.88	913.83	15.497	-284.14	734.34	87.55	-117.56	1600.7	265.91	-538.71	88.858	224.8	-401.57	1342.9	396.42	-554.17	223.7	245.46	-649.17	255.82	213.7	-590.76	245.2	163.13	-241.98	80.466	359.28	-41.247	37.757	296.78	-556.28	110.13	146.92	-399.72	1048	457.03	-507.89	66.111	200.8	-337.5	1250.8	23.386	-180.84	863.33	-32.631	-294.51	32.979	319.57
310	1.55	-227.57	949.1	414.56	-254.81	1381	445.76	-303.73	1191.7	521.68	-330.32	925.85	570.44	-166.59	673.58	420.24	-325.36	1441.9	306.45	-262.61	1004.5	-26.578	-208.18	561.16	428.99	-361.05	1070.5	549.53	-395.16	1122	80.423	-310.46	739.42	570.73	-230.15	650.37	450.59	-187.75	461.27	410.86	-180.15	183.03	317.66	-93.01	39.415	273.59	-159.18	372.07	324.74	-350.69	795.16	566.19	-119.69	33.194	362.16	-291.92	1440.9	127.32	-253.73	741.55	464.77	-167.42	279.35	323.28	-174.4	274.45	395.12	-241.98	551.69	98.086	-371.27	1124.2	3.1336	-220.6	97.547	271.82	-256.98	886.52	-22.771	-282.18	790.96	527.74	-419.66	959.94	220.78	-194.18	1358.4	280.13	-270.61	343.16	171.31	-425.45	1134.2	275.42	-295.13	1585	249.29	-415.5	966.74	326.01	-353.26	300.16	178.07	-434.38	255	183.6	-244.4	443.23	111.88	-188.62	653.7	118.45	-259.57	639.55	89.317	-373.42	326.25	114.42	-289.3	1570.2	386.6	-190.77	914.72	15.918	-276.22	736.09	87.656	-111.1	1601.9	266.14	-521.57	89.352	224	-395.29	1344.2	396.46	-538.74	223.98	245.35	-634.63	254.7	213.94	-575.86	245.32	163.16	-242.17	80.438	359.21	-41.426	37.932	296.97	-539.55	110.92	146.34	-391.19	1048.8	457.94	-490.34	67.216	200.08	-332.41	1252.3	23.424	-176.5	864.02	-31.92	-294.58	32.949	319.6
311	1.555	-221.83	950.37	414.83	-248.37	1382.6	445.79	-295.22	1193.2	521.53	-319.24	927.26	570.99	-163.32	673.25	420.59	-319.05	1443.4	306.37	-257.85	1005.6	-26.388	-206.36	561.45	429.72	-351.73	1071.6	550.35	-390.28	1123.8	80.456	-296.79	741.55	571.17	-227.37	650.93	450.97	-186.67	461.28	411.36	-180.17	182.99	317.83	-93.162	39.506	273.8	-158.72	372.07	325.27	-337.75	796.42	566.75	-119.75	33.171	362.34	-286.04	1442.3	127.18	-249.5	742.53	465	-167.26	279.36	323.62	-173.91	274.46	395.49	-230.81	554.24	97.971	-366.17	1125.9	3.4326	-220.72	97.647	272.1	-252.55	887.53	-22.792	-269.28	793.37	527.96	-413.34	961.34	221.17	-188.08	1360	279.78	-256.12	345.51	170.66	-419.41	1135.9	275.47	-288.54	1586.9	249.04	-409.3	968.28	326.47	-338.78	301.81	177.6	-419.6	255.63	183.59	-231.56	445.66	111.6	-179.03	656.86	118.02	-249.8	641.81	89.115	-359.33	328.3	114.21	-282.61	1571.9	386.54	-186.63	915.7	16.405	-268.17	737.89	87.482	-103.99	1603.2	266.16	-503.91	89.684	223.4	-388.75	1345.6	396.81	-523.07	223.57	245.43	-619.99	253.06	214.16	-560.88	244.75	163.29	-242.15	80.088	359.13	-41.511	38.062	297.16	-522.15	111.25	145.9	-382.06	1049.7	458.77	-472.62	67.947	199.82	-327.24	1253.8	23.349	-172.53	864.49	-31.359	-294.66	32.859	319.52
312	1.56	-216.02	951.63	415.27	-242.04	1384.4	445.62	-286.97	1194.9	521.5	-307.84	928.97	571.34	-160.14	672.8	420.84	-312.98	1444.8	306.17	-253.08	1006.8	-26.292	-204.3	561.71	430.17	-342.26	1073.1	550.85	-385.24	1125.3	80.494	-282.6	743.55	571.49	-224.4	651.49	451.71	-186.05	461.33	411.9	-180.16	182.95	317.93	-93.367	39.608	274.04	-157.3	371.94	325.49	-324.64	798	567.33	-119.84	33.114	362.46	-280.34	1443.7	126.96	-245.68	743.38	465.44	-167.2	279.31	324	-173.66	274.43	395.76	-219.77	556.62	97.75	-361.2	1127.2	3.6844	-220.83	97.788	272.36	-248.54	888.59	-22.811	-256.57	795.77	527.87	-407.27	963.03	221.01	-182.17	1361.5	279.56	-242.27	347.67	170.18	-412.96	1137.5	275.58	-281.87	1588.6	248.87	-403.62	969.71	326.5	-324.57	303.09	177.44	-404.31	256.25	183.18	-218.6	448.43	111.43	-169.36	660.31	117.32	-240.31	644.08	88.966	-345.06	329.97	114.02	-276.21	1573.8	386.23	-182.55	916.5	16.706	-260.09	739.68	87.399	-97.569	1604.2	266.11	-486.22	89.724	223.2	-382.51	1347.1	397.21	-507.74	223.09	245.42	-605.03	251	214.22	-545.82	243.75	163.27	-242.27	79.998	359.08	-41.59	38.248	297.34	-504.75	111.21	145.59	-373.36	1050.4	459.58	-454.52	68.534	199.56	-322.38	1255.3	23.372	-168.35	865.29	-30.896	-294.76	32.864	319.51
313	1.565	-210.04	952.81	415.9	-235.41	1386.2	445.35	-279.12	1196.6	521.56	-296.72	930.71	571.57	-156.8	672.59	421.42	-306.71	1446.1	306.06	-248.94	1008	-26.142	-202.57	561.9	430.69	-332.97	1074.4	551.52	-380.37	1127	80.59	-268.52	745.85	571.79	-221.58	651.89	452.12	-185.69	461.31	412.49	-179.95	182.78	318.33	-93.551	39.712	274.25	-157.12	371.97	325.96	-311.13	799.66	567.77	-119.94	33.084	362.58	-274.84	1445.1	127.04	-241.26	744.36	465.78	-167.12	279.18	324.22	-173.49	274.38	396.05	-209.18	559.05	97.59	-356.36	1128.8	3.776	-220.92	97.901	272.59	-244.45	889.84	-22.828	-243.48	798.28	527.95	-401.07	964.84	220.99	-176.15	1363.1	279.33	-228.48	349.7	169.75	-406.75	1138.8	275.63	-275.24	1590.5	248.82	-397.98	971.4	326.63	-310.02	304.34	177.11	-388.8	256.48	182.78	-205.89	451.21	111.41	-160.12	663.38	116.81	-230.84	646.03	88.733	-331.04	331.49	114	-269.99	1575.3	385.77	-178.58	917.36	17.06	-252.09	741.56	87.46	-90.701	1605.3	266.06	-467.99	89.518	222.95	-376.37	1348.5	397.4	-491.97	222.44	245.37	-590.25	248.5	213.98	-530.42	242.36	163.33	-242.35	80.078	359.5	-41.738	38.442	297.5	-486.78	110.96	145.35	-364.39	1051.2	460.36	-435.67	69.194	199.08	-317.28	1256.8	23.268	-164.4	865.91	-30.467	-294.86	32.877	319.51
314	1.57	-204.26	954.02	416.33	-229.21	1388.2	445.03	-271.37	1198.1	521.85	-285.35	932.48	572	-152.95	672.26	422.17	-300.73	1447.5	305.91	-244.7	1009.3	-26.279	-200.82	562.06	431.22	-323.89	1075.7	552.32	-375.7	1128.4	81.03	-254.51	748.24	572.04	-218.45	652.3	452.65	-184.02	461.08	412.69	-179.91	182.77	318.69	-93.72	39.824	274.47	-157.42	371.82	326.66	-297.67	801.17	568.19	-120.02	33.021	362.74	-269.19	1446.4	126.79	-237.91	745.05	465.91	-166.58	278.61	324.11	-173.42	274.28	396.41	-198.7	561.37	97.522	-351.56	1130.2	4.1637	-220.98	97.985	272.76	-240.27	890.94	-22.987	-230.43	800.9	528.16	-394.98	966.41	221.14	-169.83	1364.7	279.19	-214.47	351.83	169.2	-400.45	1140	275.82	-268.58	1591.9	248.62	-391.82	972.82	326.9	-295.2	305.68	176.57	-373.53	256.8	182.5	-193.56	453.99	111.3	-150.7	666.51	116.32	-221.27	648.08	88.577	-317.22	332.95	113.85	-263.5	1576.8	385.69	-174.44	917.91	17.343	-244.16	743.33	87.424	-84.269	1606.2	266.07	-449.65	89.203	222.89	-370.01	1349.6	397.56	-476.17	221.36	245.48	-575.1	245.57	214.1	-514.9	240.83	163.15	-242.47	80.193	359.99	-41.929	38.565	297.59	-468.59	110.32	145.32	-355.71	1052.1	461.02	-416.73	69.426	199.09	-312.4	1257.9	23.24	-160.24	866.77	-30.113	-294.96	32.888	319.5
315	1.575	-198.61	955.02	416.89	-222.93	1389.9	444.92	-263.6	1200	521.95	-274.03	934.1	572.41	-150.76	671.24	422.69	-294.53	1448.8	305.72	-239.91	1010.6	-26.275	-199.15	562.23	431.74	-314.9	1077.1	553.04	-370.6	1129.8	81.555	-240.12	750.67	572.41	-214.62	652.99	452.75	-183.6	461.4	413.52	-179.94	182.71	318.91	-93.869	39.9	274.71	-157.65	371.61	327.38	-284.4	802.96	568.71	-120.11	32.956	362.87	-263.35	1447.7	126.63	-232.59	745.99	466.21	-166.31	279.09	324.92	-173.24	274.18	396.92	-188.08	563.64	97.563	-346.99	1131.5	4.3544	-220.99	98.07	272.97	-236.2	892.01	-22.971	-217.36	803.82	528.33	-387.77	967.99	221.72	-163.7	1366.1	278.99	-200.46	353.69	168.15	-394.21	1141.2	276.13	-262	1593.3	248.22	-385.33	974.07	326.94	-281.14	306.73	176.36	-358.22	256.89	182.11	-181.16	456.94	111.23	-141.43	669.46	115.68	-212.22	650.11	88.58	-303.19	334.24	113.91	-257.14	1578.5	385.51	-170.43	919.13	17.423	-236.2	744.98	87.392	-77.715	1607.2	265.91	-431.04	88.486	223.13	-363.36	1350.8	397.72	-460.45	219.94	245.6	-559.74	242.27	214.06	-499.29	238.8	163.19	-242.57	80.236	360.27	-42.2	38.7	297.7	-450.03	109.27	145.5	-347.08	1053.1	461.84	-397.57	69.686	199.21	-307.77	1259.2	23.228	-156.35	867.39	-29.754	-295.02	32.879	319.48
